<svg width="24" height="24" viewBox="0 0 24 24" fill="none" xmlns="http://www.w3.org/2000/svg">
<path d="M17 1C20.3137 1 23 3.68629 23 7V17C23 20.3137 20.3137 23 17 23H7C3.68629 23 1 20.3137 1 17V7C1 3.68629 3.68629 1 7 1H17ZM7 3C4.79086 3 3 4.79086 3 7V17C3 19.2091 4.79086 21 7 21H17C19.2091 21 21 19.2091 21 17V7C21 4.79086 19.2091 3 17 3H7ZM9.74121 7.51855C10.6746 7.0344 11.7373 6.85653 12.7773 7.01074L12.9756 7.04492C13.9604 7.23179 14.8681 7.71092 15.5791 8.42188C16.3374 9.18038 16.8329 10.1627 16.9902 11.2236L17.0146 11.4189C17.1204 12.3961 16.9364 13.3848 16.4824 14.2598C15.9981 15.1931 15.2312 15.95 14.292 16.4229C13.3529 16.8955 12.288 17.0604 11.25 16.8936C10.2118 16.7265 9.25239 16.2356 8.50879 15.4922C7.76521 14.7486 7.27455 13.7892 7.10742 12.751C6.94045 11.7128 7.10536 10.6483 7.57812 9.70898C8.05096 8.76969 8.80779 8.00289 9.74121 7.51855ZM12.4844 8.98926C11.8603 8.89671 11.2221 9.00343 10.6621 9.29395C10.102 9.58457 9.64795 10.0448 9.36426 10.6084C9.08061 11.172 8.9818 11.8107 9.08203 12.4336C9.18233 13.0565 9.47674 13.632 9.92285 14.0781C10.369 14.5241 10.9446 14.8187 11.5674 14.9189C12.1902 15.019 12.8291 14.9203 13.3926 14.6367C13.9561 14.353 14.4165 13.8989 14.707 13.3389C14.9612 12.849 15.0746 12.2995 15.0371 11.752L15.0117 11.5166C14.9173 10.8802 14.6199 10.2909 14.165 9.83594C13.767 9.43789 13.266 9.16053 12.7207 9.03418L12.4844 8.98926ZM17.6123 5.50488C18.1165 5.55611 18.5098 5.98224 18.5098 6.5C18.5098 7.01776 18.1165 7.44389 17.6123 7.49512L17.5098 7.5H17.5C16.9477 7.5 16.5 7.05228 16.5 6.5C16.5 5.94772 16.9477 5.5 17.5 5.5H17.5098L17.6123 5.50488Z" fill="white"/>
</svg>
