<svg width="192" height="55" viewBox="0 0 192 55" fill="none" xmlns="http://www.w3.org/2000/svg">
<g clip-path="url(#clip0_5_33)">
<path d="M27.5 0C42.6878 0 55 12.3122 55 27.5C55 41.845 44.0162 53.6226 30 54.8857V55H3V50H11.6865C4.61844 45.0233 0 36.8014 0 27.5C0 12.3122 12.3122 0 27.5 0ZM27.5 39C24.4624 39 22 41.4624 22 44.5C22 47.5376 24.4624 50 27.5 50C30.5376 50 33 47.5376 33 44.5C33 41.4624 30.5376 39 27.5 39ZM181.376 32.3662L185.342 20.5596H191.942L183.622 40.0801L180.183 48.2002H173.902L178.321 38.6631L170.902 20.5596H177.502L181.376 32.3662ZM12.5 30C9.46243 30 7 32.4624 7 35.5C7 38.5376 9.46243 41 12.5 41C15.5376 41 18 38.5376 18 35.5C18 32.4624 15.5376 30 12.5 30ZM42.5 30C39.4624 30 37 32.4624 37 35.5C37 38.5376 39.4624 41 42.5 41C45.5376 41 48 38.5376 48 35.5C48 32.4624 45.5376 30 42.5 30ZM110.855 20.1201C112.882 20.1201 114.696 20.5604 116.296 21.4404C117.896 22.3204 119.162 23.5335 120.096 25.0801C121.029 26.6001 121.496 28.3202 121.496 30.2402C121.496 32.1601 121.029 33.8938 120.096 35.4404C119.162 36.9869 117.896 38.2135 116.296 39.1201C114.696 40.0001 112.882 40.4404 110.855 40.4404C108.856 40.4404 107.043 40 105.416 39.1201C103.816 38.2135 102.55 36.9869 101.616 35.4404C100.683 33.8938 100.216 32.1601 100.216 30.2402C100.216 28.3202 100.683 26.6001 101.616 25.0801C102.55 23.5602 103.816 22.3605 105.416 21.4805C107.016 20.5739 108.829 20.1202 110.855 20.1201ZM82.1777 27.3008L92.1201 11.7598H96.6396V40H90.3604V24.3848L84.2402 33.9199H80.0801L73.96 24.3311V40H67.7197V11.7598H72.2002L82.1777 27.3008ZM132.636 32.5938L136.796 20.5596H143.276L135.036 40H130.116L121.876 20.5596H128.476L132.636 32.5938ZM151.601 40H145.48V20.5596H151.601V40ZM166.99 10.5195C168.323 10.5196 169.483 10.7469 170.47 11.2002C171.483 11.6269 172.364 12.2267 173.11 13L169.27 16.8398C169.003 16.5733 168.696 16.3735 168.35 16.2402C168.03 16.0804 167.643 16 167.19 16C166.364 16 165.71 16.24 165.23 16.7197C164.751 17.1997 164.51 17.8532 164.51 18.6797V20.5596H170.11V25.7598H164.51V40H158.39V25.7598H154.11V20.5596H158.39V18.8799C158.39 17.3066 158.736 15.893 159.43 14.6396C160.15 13.3597 161.15 12.3596 162.43 11.6396C163.71 10.893 165.23 10.5195 166.99 10.5195ZM23.5 19.1338C23.1907 18.9553 22.8093 18.9553 22.5 19.1338C22.1907 19.3124 22 19.6428 22 20V35C22 35.3572 22.1907 35.6876 22.5 35.8662C22.8093 36.0447 23.1907 36.0447 23.5 35.8662L36.5 28.3662C36.8094 28.1876 37 27.8573 37 27.5C37 27.1427 36.8094 26.8124 36.5 26.6338L23.5 19.1338ZM110.855 25.6797C110.002 25.6798 109.243 25.8804 108.576 26.2803C107.91 26.6536 107.389 27.1865 107.016 27.8799C106.642 28.5732 106.456 29.3736 106.456 30.2803C106.456 31.16 106.642 31.9599 107.016 32.6797C107.389 33.373 107.91 33.9203 108.576 34.3203C109.243 34.6935 110.002 34.8798 110.855 34.8799C111.735 34.8799 112.509 34.6935 113.176 34.3203C113.842 33.9203 114.35 33.373 114.696 32.6797C115.069 31.9598 115.256 31.1466 115.256 30.2402C115.256 29.3336 115.07 28.5465 114.696 27.8799C114.323 27.1865 113.802 26.6536 113.136 26.2803C112.496 25.8803 111.735 25.6797 110.855 25.6797ZM12.5 15C9.46243 15 7 17.4624 7 20.5C7 23.5376 9.46243 26 12.5 26C15.5376 26 18 23.5376 18 20.5C18 17.4624 15.5376 15 12.5 15ZM42.5 15C39.4624 15 37 17.4624 37 20.5C37 23.5376 39.4624 26 42.5 26C45.5376 26 48 23.5376 48 20.5C48 17.4624 45.5376 15 42.5 15ZM148.561 11.1602C149.52 11.1602 150.307 11.4803 150.92 12.1201C151.533 12.76 151.84 13.5597 151.84 14.5195C151.84 15.4529 151.533 16.2533 150.92 16.9199C150.307 17.5598 149.52 17.8798 148.561 17.8799C147.601 17.8799 146.8 17.5599 146.16 16.9199C145.547 16.2533 145.24 15.4528 145.24 14.5195C145.24 13.5598 145.547 12.76 146.16 12.1201C146.8 11.4801 147.601 11.1602 148.561 11.1602ZM27.5 6C24.4624 6 22 8.46243 22 11.5C22 14.5376 24.4624 17 27.5 17C30.5376 17 33 14.5376 33 11.5C33 8.46243 30.5376 6 27.5 6Z" fill="#3CD441"/>
</g>
<defs>
<clipPath id="clip0_5_33">
<rect width="192" height="55" fill="white"/>
</clipPath>
</defs>
</svg>
