<svg width="55" height="55" viewBox="0 0 55 55" fill="none" xmlns="http://www.w3.org/2000/svg">
<g clip-path="url(#clip0_5_54)">
<rect width="55" height="55" fill="white"/>
<path d="M27.5 0C42.6878 0 55 12.3122 55 27.5C55 41.845 44.0162 53.6226 30 54.8857V55H3V50H11.6865C4.61844 45.0233 0 36.8014 0 27.5C0 12.3122 12.3122 0 27.5 0ZM27.5 39C24.4624 39 22 41.4624 22 44.5C22 47.5376 24.4624 50 27.5 50C30.5376 50 33 47.5376 33 44.5C33 41.4624 30.5376 39 27.5 39ZM12.5 30C9.46243 30 7 32.4624 7 35.5C7 38.5376 9.46243 41 12.5 41C15.5376 41 18 38.5376 18 35.5C18 32.4624 15.5376 30 12.5 30ZM42.5 30C39.4624 30 37 32.4624 37 35.5C37 38.5376 39.4624 41 42.5 41C45.5376 41 48 38.5376 48 35.5C48 32.4624 45.5376 30 42.5 30ZM23.5 19.1338C23.1907 18.9553 22.8093 18.9553 22.5 19.1338C22.1907 19.3124 22 19.6428 22 20V35C22 35.3572 22.1907 35.6876 22.5 35.8662C22.8093 36.0447 23.1907 36.0447 23.5 35.8662L36.5 28.3662C36.8094 28.1876 37 27.8573 37 27.5C37 27.1427 36.8094 26.8124 36.5 26.6338L23.5 19.1338ZM12.5 15C9.46243 15 7 17.4624 7 20.5C7 23.5376 9.46243 26 12.5 26C15.5376 26 18 23.5376 18 20.5C18 17.4624 15.5376 15 12.5 15ZM42.5 15C39.4624 15 37 17.4624 37 20.5C37 23.5376 39.4624 26 42.5 26C45.5376 26 48 23.5376 48 20.5C48 17.4624 45.5376 15 42.5 15ZM27.5 6C24.4624 6 22 8.46243 22 11.5C22 14.5376 24.4624 17 27.5 17C30.5376 17 33 14.5376 33 11.5C33 8.46243 30.5376 6 27.5 6Z" fill="#3CD441"/>
</g>
<defs>
<clipPath id="clip0_5_54">
<rect width="55" height="55" fill="white"/>
</clipPath>
</defs>
</svg>
