<svg width="55" height="55" viewBox="0 0 55 55" fill="none" xmlns="http://www.w3.org/2000/svg">
<g clip-path="url(#clip0_5_54)">
<rect width="55" height="55" fill="white"/>
<path d="M27.5 0C42.6878 0 55 12.3122 55 27.5C55 41.845 44.0162 53.6226 30 54.8857V55H3V50H11.6865C4.61844 45.0233 0 36.8014 0 27.5C0 12.3122 12.3122 0 27.5 0ZM27.5 39C24.4624 39 22 41.4624 22 44.5C22 47.5376 24.4624 50 27.5 50C30.5376 50 33 47.5376 33 44.5C33 41.4624 30.5376 39 27.5 39ZM12.5 30C9.46243 30 7 32.4624 7 35.5C7 38.5376 9.46243 41 12.5 41C15.5376 41 18 38.5376 18 35.5C18 32.4624 15.5376 30 12.5 30ZM42.5 30C39.4624 30 37 32.4624 37 35.5C37 38.5376 39.4624 41 42.5 41C45.5376 41 48 38.5376 48 35.5C48 32.4624 45.5376 30 42.5 30ZM24.5078 18.1387C24.1986 17.9565 23.8155 17.9538 23.5039 18.1318C23.2312 18.2877 23.0498 18.5608 23.0088 18.8672L23 19V37C23 37.3589 23.1923 37.6901 23.5039 37.8682C23.8155 38.0462 24.1986 38.0435 24.5078 37.8613L39.7803 28.8613C40.0853 28.6816 40.2725 28.3541 40.2725 28C40.2725 27.6459 40.0853 27.3184 39.7803 27.1387L24.5078 18.1387ZM12.5 15C9.46243 15 7 17.4624 7 20.5C7 23.5376 9.46243 26 12.5 26C15.5376 26 18 23.5376 18 20.5C18 17.4624 15.5376 15 12.5 15ZM42.5 15C39.4624 15 37 17.4624 37 20.5C37 23.5376 39.4624 26 42.5 26C45.5376 26 48 23.5376 48 20.5C48 17.4624 45.5376 15 42.5 15ZM27.5 6C24.4624 6 22 8.46243 22 11.5C22 14.5376 24.4624 17 27.5 17C30.5376 17 33 14.5376 33 11.5C33 8.46243 30.5376 6 27.5 6Z" fill="#3CD441"/>
</g>
<defs>
<clipPath id="clip0_5_54">
<rect width="55" height="55" fill="white"/>
</clipPath>
</defs>
</svg>
