<svg width="24" height="24" viewBox="0 0 24 24" fill="none" xmlns="http://www.w3.org/2000/svg">
<g clip-path="url(#clip0_8_37)">
<path d="M12.0008 4V3H12.0799C12.1314 3.00011 12.2073 3.00056 12.3036 3.00098C12.4966 3.0018 12.7743 3.00354 13.1122 3.00684C13.7877 3.01344 14.7077 3.02629 15.6825 3.05273C16.6559 3.07915 17.6921 3.11939 18.5975 3.17969C19.3672 3.23095 20.1029 3.2998 20.6268 3.40234L20.8377 3.44824L20.8729 3.45801L21.1102 3.5332C21.6562 3.7274 22.1514 4.04539 22.5565 4.46289C22.9616 4.88059 23.2647 5.38567 23.4422 5.9375L23.5106 6.17676L23.5243 6.24219L23.6395 6.92578C23.8892 8.51986 24.0104 10.1319 24.0008 11.7461L23.995 12.4287C23.9688 13.7936 23.8501 15.1553 23.6385 16.5039L23.5243 17.1777C23.5203 17.1995 23.516 17.2217 23.5106 17.2432C23.3491 17.8883 23.0195 18.4797 22.5565 18.957C22.1514 19.3745 21.6562 19.6925 21.1102 19.8867L20.8729 19.9619C20.8685 19.9632 20.8636 19.9646 20.8592 19.9658C20.3256 20.1085 19.4826 20.1995 18.6034 20.2637C17.6964 20.3298 16.6592 20.3734 15.6854 20.4023C14.7099 20.4313 13.7891 20.4459 13.1131 20.4531C12.7754 20.4567 12.4977 20.4581 12.3045 20.459C12.2081 20.4594 12.1315 20.4598 12.0799 20.46H12.0008C12.0007 20.46 12.0008 20.46 12.0008 19.46L11.9999 20.46H11.9208C11.8693 20.4598 11.7934 20.4594 11.6971 20.459C11.504 20.4581 11.2256 20.4567 10.8876 20.4531C10.2117 20.4459 9.29076 20.4313 8.31529 20.4023C7.34149 20.3734 6.30432 20.3298 5.39732 20.2637C4.51832 20.1996 3.67611 20.1085 3.14244 19.9658L3.13658 19.9648C2.50957 19.7933 1.9375 19.4621 1.47544 19.0049C1.07125 18.6049 0.763091 18.1197 0.573099 17.5859L0.498881 17.3535L0.47642 17.2578C0.148273 15.4386 -0.0107472 13.5927 0.000833822 11.7441C-0.00755544 9.9129 0.151418 8.08443 0.47642 6.28223L0.490092 6.2168C0.651644 5.57164 0.981124 4.98032 1.44419 4.50293C1.90719 4.02574 2.48804 3.67913 3.12779 3.49805L3.14244 3.49414L3.3563 3.44238C3.88696 3.32866 4.62819 3.25239 5.39732 3.19629C6.30432 3.13015 7.34149 3.08656 8.31529 3.05762C9.29076 3.02863 10.2117 3.01407 10.8876 3.00684C11.2256 3.00322 11.504 3.00188 11.6971 3.00098C11.7934 3.00052 11.8693 3.00011 11.9208 3H11.9999C12 3.00103 12.0008 3.03269 12.0008 4ZM9.99693 8.0459C9.84233 7.95801 9.65268 7.95863 9.49888 8.04785C9.36451 8.12617 9.27406 8.26232 9.25376 8.41406L9.24986 8.48047V15.0205C9.25004 15.1984 9.34513 15.3637 9.49888 15.4531C9.65254 15.5422 9.84243 15.5427 9.99693 15.4551L15.7469 12.1855C15.9031 12.0967 15.9997 11.9296 15.9999 11.75C15.9997 11.5704 15.903 11.4042 15.7469 11.3154L9.99693 8.0459Z" fill="white"/>
</g>
<defs>
<clipPath id="clip0_8_37">
<rect width="24" height="24" fill="white"/>
</clipPath>
</defs>
</svg>
